<mxfile host="app.diagrams.net" agent="Mozilla/5.0 (Macintosh; Intel Mac OS X 10_15_7) AppleWebKit/537.36 (KHTML, like Gecko) Chrome/136.0.0.0 Safari/537.36 Edg/136.0.0.0" version="27.0.6">
  <diagram name="Page-1" id="Kk6GCK4LstFddURs280n">
    <mxGraphModel dx="1684" dy="1602" grid="1" gridSize="10" guides="1" tooltips="1" connect="1" arrows="1" fold="1" page="1" pageScale="1" pageWidth="850" pageHeight="1100" math="0" shadow="0">
      <root>
        <mxCell id="0" />
        <mxCell id="1" parent="0" />
        <mxCell id="klKvHwUEyPqV0aK19Lbt-1" value="" style="rounded=0;whiteSpace=wrap;html=1;" vertex="1" parent="1">
          <mxGeometry x="460" y="80" width="180" height="90" as="geometry" />
        </mxCell>
        <mxCell id="klKvHwUEyPqV0aK19Lbt-2" value="&lt;font style=&quot;font-size: 14px;&quot;&gt;// All the operation that can be performed in particular state&lt;/font&gt;" style="text;html=1;align=center;verticalAlign=middle;whiteSpace=wrap;rounded=0;" vertex="1" parent="1">
          <mxGeometry x="480" y="95" width="140" height="60" as="geometry" />
        </mxCell>
        <mxCell id="klKvHwUEyPqV0aK19Lbt-3" value="&lt;font style=&quot;font-size: 14px;&quot;&gt;ATM State &amp;lt;&amp;lt;abstract&amp;gt;&amp;gt;&lt;/font&gt;" style="text;html=1;align=center;verticalAlign=middle;whiteSpace=wrap;rounded=0;" vertex="1" parent="1">
          <mxGeometry x="470" y="40" width="160" height="30" as="geometry" />
        </mxCell>
        <mxCell id="klKvHwUEyPqV0aK19Lbt-4" value="" style="rounded=0;whiteSpace=wrap;html=1;" vertex="1" parent="1">
          <mxGeometry x="300" y="380" width="180" height="90" as="geometry" />
        </mxCell>
        <mxCell id="klKvHwUEyPqV0aK19Lbt-5" value="&lt;span style=&quot;font-size: 14px;&quot;&gt;insertCard();&lt;/span&gt;" style="text;html=1;align=center;verticalAlign=middle;whiteSpace=wrap;rounded=0;" vertex="1" parent="1">
          <mxGeometry x="320" y="395" width="140" height="60" as="geometry" />
        </mxCell>
        <mxCell id="klKvHwUEyPqV0aK19Lbt-6" value="&lt;span style=&quot;font-size: 14px;&quot;&gt;Idle State&lt;/span&gt;" style="text;html=1;align=center;verticalAlign=middle;whiteSpace=wrap;rounded=0;" vertex="1" parent="1">
          <mxGeometry x="310" y="340" width="160" height="30" as="geometry" />
        </mxCell>
        <mxCell id="klKvHwUEyPqV0aK19Lbt-7" value="" style="rounded=0;whiteSpace=wrap;html=1;" vertex="1" parent="1">
          <mxGeometry x="520" y="380" width="180" height="90" as="geometry" />
        </mxCell>
        <mxCell id="klKvHwUEyPqV0aK19Lbt-8" value="&lt;span style=&quot;font-size: 14px;&quot;&gt;authenticate();&lt;/span&gt;&lt;div&gt;&lt;span style=&quot;font-size: 14px;&quot;&gt;exitATM();&lt;/span&gt;&lt;/div&gt;&lt;div&gt;&lt;span style=&quot;font-size: 14px;&quot;&gt;returnCard();&lt;/span&gt;&lt;/div&gt;" style="text;html=1;align=center;verticalAlign=middle;whiteSpace=wrap;rounded=0;" vertex="1" parent="1">
          <mxGeometry x="540" y="395" width="140" height="60" as="geometry" />
        </mxCell>
        <mxCell id="klKvHwUEyPqV0aK19Lbt-9" value="&lt;span style=&quot;font-size: 14px;&quot;&gt;hasCard State&lt;/span&gt;" style="text;html=1;align=center;verticalAlign=middle;whiteSpace=wrap;rounded=0;" vertex="1" parent="1">
          <mxGeometry x="530" y="340" width="160" height="30" as="geometry" />
        </mxCell>
        <mxCell id="klKvHwUEyPqV0aK19Lbt-10" value="" style="rounded=0;whiteSpace=wrap;html=1;" vertex="1" parent="1">
          <mxGeometry x="750" y="380" width="180" height="90" as="geometry" />
        </mxCell>
        <mxCell id="klKvHwUEyPqV0aK19Lbt-11" value="&lt;span style=&quot;font-size: 14px;&quot;&gt;selectOperation();&lt;/span&gt;&lt;div&gt;&lt;span style=&quot;font-size: 14px;&quot;&gt;exitATM();&lt;/span&gt;&lt;/div&gt;&lt;div&gt;&lt;span style=&quot;font-size: 14px;&quot;&gt;returnCard();&lt;/span&gt;&lt;/div&gt;" style="text;html=1;align=center;verticalAlign=middle;whiteSpace=wrap;rounded=0;" vertex="1" parent="1">
          <mxGeometry x="770" y="395" width="140" height="60" as="geometry" />
        </mxCell>
        <mxCell id="klKvHwUEyPqV0aK19Lbt-12" value="&lt;span style=&quot;font-size: 14px;&quot;&gt;selectOperation State&lt;/span&gt;" style="text;html=1;align=center;verticalAlign=middle;whiteSpace=wrap;rounded=0;" vertex="1" parent="1">
          <mxGeometry x="760" y="340" width="160" height="30" as="geometry" />
        </mxCell>
        <mxCell id="klKvHwUEyPqV0aK19Lbt-16" value="" style="rounded=0;whiteSpace=wrap;html=1;" vertex="1" parent="1">
          <mxGeometry x="50" y="380" width="180" height="90" as="geometry" />
        </mxCell>
        <mxCell id="klKvHwUEyPqV0aK19Lbt-17" value="&lt;span style=&quot;font-size: 14px;&quot;&gt;cashWithdrwal();&lt;/span&gt;&lt;div&gt;&lt;span style=&quot;font-size: 14px;&quot;&gt;exitATM();&lt;/span&gt;&lt;/div&gt;&lt;div&gt;&lt;span style=&quot;font-size: 14px;&quot;&gt;returnCard();&lt;/span&gt;&lt;/div&gt;" style="text;html=1;align=center;verticalAlign=middle;whiteSpace=wrap;rounded=0;" vertex="1" parent="1">
          <mxGeometry x="70" y="395" width="140" height="60" as="geometry" />
        </mxCell>
        <mxCell id="klKvHwUEyPqV0aK19Lbt-18" value="&lt;span style=&quot;font-size: 14px;&quot;&gt;cashWithdrawl State&lt;/span&gt;" style="text;html=1;align=center;verticalAlign=middle;whiteSpace=wrap;rounded=0;" vertex="1" parent="1">
          <mxGeometry x="60" y="340" width="160" height="30" as="geometry" />
        </mxCell>
        <mxCell id="klKvHwUEyPqV0aK19Lbt-19" value="" style="rounded=0;whiteSpace=wrap;html=1;" vertex="1" parent="1">
          <mxGeometry x="990" y="380" width="180" height="90" as="geometry" />
        </mxCell>
        <mxCell id="klKvHwUEyPqV0aK19Lbt-20" value="&lt;span style=&quot;font-size: 14px;&quot;&gt;checkBalance();&lt;/span&gt;&lt;div&gt;&lt;span style=&quot;font-size: 14px;&quot;&gt;exitATM();&lt;/span&gt;&lt;/div&gt;&lt;div&gt;&lt;span style=&quot;font-size: 14px;&quot;&gt;returnCard();&lt;/span&gt;&lt;/div&gt;" style="text;html=1;align=center;verticalAlign=middle;whiteSpace=wrap;rounded=0;" vertex="1" parent="1">
          <mxGeometry x="1010" y="395" width="140" height="60" as="geometry" />
        </mxCell>
        <mxCell id="klKvHwUEyPqV0aK19Lbt-21" value="&lt;span style=&quot;font-size: 14px;&quot;&gt;checkBalance State&lt;/span&gt;" style="text;html=1;align=center;verticalAlign=middle;whiteSpace=wrap;rounded=0;" vertex="1" parent="1">
          <mxGeometry x="1000" y="340" width="160" height="30" as="geometry" />
        </mxCell>
        <mxCell id="klKvHwUEyPqV0aK19Lbt-25" value="" style="shape=flexArrow;endArrow=classic;html=1;rounded=0;" edge="1" parent="1">
          <mxGeometry width="50" height="50" relative="1" as="geometry">
            <mxPoint x="180" y="340" as="sourcePoint" />
            <mxPoint x="450" y="190" as="targetPoint" />
          </mxGeometry>
        </mxCell>
        <mxCell id="klKvHwUEyPqV0aK19Lbt-26" value="" style="shape=flexArrow;endArrow=classic;html=1;rounded=0;" edge="1" parent="1">
          <mxGeometry width="50" height="50" relative="1" as="geometry">
            <mxPoint x="440" y="360" as="sourcePoint" />
            <mxPoint x="520" y="200" as="targetPoint" />
          </mxGeometry>
        </mxCell>
        <mxCell id="klKvHwUEyPqV0aK19Lbt-27" value="" style="shape=flexArrow;endArrow=classic;html=1;rounded=0;exitX=0.394;exitY=-0.117;exitDx=0;exitDy=0;exitPerimeter=0;" edge="1" parent="1" source="klKvHwUEyPqV0aK19Lbt-9">
          <mxGeometry width="50" height="50" relative="1" as="geometry">
            <mxPoint x="585" y="340" as="sourcePoint" />
            <mxPoint x="590" y="180" as="targetPoint" />
          </mxGeometry>
        </mxCell>
        <mxCell id="klKvHwUEyPqV0aK19Lbt-28" value="" style="shape=flexArrow;endArrow=classic;html=1;rounded=0;" edge="1" parent="1">
          <mxGeometry width="50" height="50" relative="1" as="geometry">
            <mxPoint x="810" y="330" as="sourcePoint" />
            <mxPoint x="640" y="200" as="targetPoint" />
          </mxGeometry>
        </mxCell>
        <mxCell id="klKvHwUEyPqV0aK19Lbt-29" value="" style="shape=flexArrow;endArrow=classic;html=1;rounded=0;" edge="1" parent="1">
          <mxGeometry width="50" height="50" relative="1" as="geometry">
            <mxPoint x="1020" y="330" as="sourcePoint" />
            <mxPoint x="690" y="190" as="targetPoint" />
          </mxGeometry>
        </mxCell>
        <mxCell id="klKvHwUEyPqV0aK19Lbt-30" value="" style="rounded=0;whiteSpace=wrap;html=1;" vertex="1" parent="1">
          <mxGeometry x="-200" y="110" width="170" height="90" as="geometry" />
        </mxCell>
        <mxCell id="klKvHwUEyPqV0aK19Lbt-31" value="&lt;span style=&quot;font-size: 14px;&quot;&gt;ATM&lt;/span&gt;" style="text;html=1;align=center;verticalAlign=middle;whiteSpace=wrap;rounded=0;" vertex="1" parent="1">
          <mxGeometry x="-190" y="70" width="160" height="30" as="geometry" />
        </mxCell>
        <mxCell id="klKvHwUEyPqV0aK19Lbt-32" value="&lt;font style=&quot;font-size: 14px;&quot;&gt;ATM State state&lt;/font&gt;" style="text;html=1;align=center;verticalAlign=middle;whiteSpace=wrap;rounded=0;" vertex="1" parent="1">
          <mxGeometry x="-195" y="140" width="160" height="30" as="geometry" />
        </mxCell>
        <mxCell id="klKvHwUEyPqV0aK19Lbt-33" value="" style="endArrow=classic;html=1;rounded=0;" edge="1" parent="1">
          <mxGeometry width="50" height="50" relative="1" as="geometry">
            <mxPoint x="-30" y="120" as="sourcePoint" />
            <mxPoint x="460" y="119" as="targetPoint" />
          </mxGeometry>
        </mxCell>
        <mxCell id="klKvHwUEyPqV0aK19Lbt-35" value="" style="rounded=0;whiteSpace=wrap;html=1;" vertex="1" parent="1">
          <mxGeometry x="-310" y="350" width="170" height="90" as="geometry" />
        </mxCell>
        <mxCell id="klKvHwUEyPqV0aK19Lbt-36" value="&lt;span style=&quot;font-size: 14px;&quot;&gt;User&lt;/span&gt;" style="text;html=1;align=center;verticalAlign=middle;whiteSpace=wrap;rounded=0;" vertex="1" parent="1">
          <mxGeometry x="-300" y="310" width="160" height="30" as="geometry" />
        </mxCell>
        <mxCell id="klKvHwUEyPqV0aK19Lbt-37" value="&lt;span style=&quot;font-size: 14px;&quot;&gt;BankAccount account;&lt;/span&gt;&lt;div&gt;&lt;span style=&quot;font-size: 14px;&quot;&gt;Card card&lt;/span&gt;&lt;/div&gt;" style="text;html=1;align=center;verticalAlign=middle;whiteSpace=wrap;rounded=0;" vertex="1" parent="1">
          <mxGeometry x="-305" y="380" width="160" height="30" as="geometry" />
        </mxCell>
        <mxCell id="klKvHwUEyPqV0aK19Lbt-38" value="" style="rounded=0;whiteSpace=wrap;html=1;" vertex="1" parent="1">
          <mxGeometry x="-430" y="600" width="170" height="90" as="geometry" />
        </mxCell>
        <mxCell id="klKvHwUEyPqV0aK19Lbt-39" value="&lt;span style=&quot;font-size: 14px;&quot;&gt;BankAccount&lt;/span&gt;" style="text;html=1;align=center;verticalAlign=middle;whiteSpace=wrap;rounded=0;" vertex="1" parent="1">
          <mxGeometry x="-420" y="560" width="160" height="30" as="geometry" />
        </mxCell>
        <mxCell id="klKvHwUEyPqV0aK19Lbt-40" value="&lt;span style=&quot;font-size: 14px;&quot;&gt;int balance;&lt;/span&gt;&lt;div&gt;&lt;span style=&quot;font-size: 14px;&quot;&gt;updateBalance();&lt;/span&gt;&lt;/div&gt;" style="text;html=1;align=center;verticalAlign=middle;whiteSpace=wrap;rounded=0;" vertex="1" parent="1">
          <mxGeometry x="-425" y="630" width="160" height="30" as="geometry" />
        </mxCell>
        <mxCell id="klKvHwUEyPqV0aK19Lbt-42" value="" style="rounded=0;whiteSpace=wrap;html=1;" vertex="1" parent="1">
          <mxGeometry x="-100" y="600" width="170" height="90" as="geometry" />
        </mxCell>
        <mxCell id="klKvHwUEyPqV0aK19Lbt-43" value="&lt;span style=&quot;font-size: 14px;&quot;&gt;Card&lt;/span&gt;" style="text;html=1;align=center;verticalAlign=middle;whiteSpace=wrap;rounded=0;" vertex="1" parent="1">
          <mxGeometry x="-90" y="560" width="160" height="30" as="geometry" />
        </mxCell>
        <mxCell id="klKvHwUEyPqV0aK19Lbt-44" value="&lt;span style=&quot;font-size: 14px;&quot;&gt;BankAccount account;&lt;/span&gt;&lt;div&gt;&lt;span style=&quot;font-size: 14px;&quot;&gt;int cvv;&lt;/span&gt;&lt;/div&gt;&lt;div&gt;&lt;span style=&quot;font-size: 14px;&quot;&gt;int exp;&lt;/span&gt;&lt;/div&gt;" style="text;html=1;align=center;verticalAlign=middle;whiteSpace=wrap;rounded=0;" vertex="1" parent="1">
          <mxGeometry x="-95" y="630" width="160" height="30" as="geometry" />
        </mxCell>
        <mxCell id="klKvHwUEyPqV0aK19Lbt-45" value="" style="edgeStyle=elbowEdgeStyle;elbow=vertical;endArrow=classic;html=1;curved=0;rounded=0;endSize=8;startSize=8;" edge="1" parent="1" target="klKvHwUEyPqV0aK19Lbt-43">
          <mxGeometry width="50" height="50" relative="1" as="geometry">
            <mxPoint x="-161" y="440" as="sourcePoint" />
            <mxPoint x="-20" y="550" as="targetPoint" />
          </mxGeometry>
        </mxCell>
        <mxCell id="klKvHwUEyPqV0aK19Lbt-47" value="" style="edgeStyle=elbowEdgeStyle;elbow=vertical;endArrow=classic;html=1;curved=0;rounded=0;endSize=8;startSize=8;entryX=0.463;entryY=0.117;entryDx=0;entryDy=0;entryPerimeter=0;exitX=0.406;exitY=1.017;exitDx=0;exitDy=0;exitPerimeter=0;" edge="1" parent="1" source="klKvHwUEyPqV0aK19Lbt-35" target="klKvHwUEyPqV0aK19Lbt-39">
          <mxGeometry width="50" height="50" relative="1" as="geometry">
            <mxPoint x="80" y="510" as="sourcePoint" />
            <mxPoint x="130" y="460" as="targetPoint" />
          </mxGeometry>
        </mxCell>
        <mxCell id="klKvHwUEyPqV0aK19Lbt-51" value="" style="endArrow=classic;html=1;rounded=0;entryX=1.006;entryY=0.433;entryDx=0;entryDy=0;exitX=-0.006;exitY=0.433;exitDx=0;exitDy=0;entryPerimeter=0;exitPerimeter=0;" edge="1" parent="1" source="klKvHwUEyPqV0aK19Lbt-42" target="klKvHwUEyPqV0aK19Lbt-38">
          <mxGeometry width="50" height="50" relative="1" as="geometry">
            <mxPoint x="-190" y="833" as="sourcePoint" />
            <mxPoint x="130" y="460" as="targetPoint" />
          </mxGeometry>
        </mxCell>
        <mxCell id="klKvHwUEyPqV0aK19Lbt-52" value="" style="rounded=0;whiteSpace=wrap;html=1;" vertex="1" parent="1">
          <mxGeometry x="-520" y="110" width="170" height="90" as="geometry" />
        </mxCell>
        <mxCell id="klKvHwUEyPqV0aK19Lbt-53" value="&lt;span style=&quot;font-size: 14px;&quot;&gt;ATM Room&lt;/span&gt;" style="text;html=1;align=center;verticalAlign=middle;whiteSpace=wrap;rounded=0;" vertex="1" parent="1">
          <mxGeometry x="-510" y="70" width="160" height="30" as="geometry" />
        </mxCell>
        <mxCell id="klKvHwUEyPqV0aK19Lbt-54" value="&lt;span style=&quot;font-size: 14px;&quot;&gt;ATM atm;&lt;/span&gt;&lt;div&gt;&lt;span style=&quot;font-size: 14px;&quot;&gt;User userl&lt;/span&gt;&lt;/div&gt;" style="text;html=1;align=center;verticalAlign=middle;whiteSpace=wrap;rounded=0;" vertex="1" parent="1">
          <mxGeometry x="-515" y="140" width="160" height="30" as="geometry" />
        </mxCell>
        <mxCell id="klKvHwUEyPqV0aK19Lbt-55" value="" style="endArrow=classic;html=1;rounded=0;exitX=1;exitY=0.5;exitDx=0;exitDy=0;entryX=0;entryY=0.5;entryDx=0;entryDy=0;" edge="1" parent="1" source="klKvHwUEyPqV0aK19Lbt-52" target="klKvHwUEyPqV0aK19Lbt-30">
          <mxGeometry width="50" height="50" relative="1" as="geometry">
            <mxPoint x="-170" y="240" as="sourcePoint" />
            <mxPoint x="-120" y="190" as="targetPoint" />
          </mxGeometry>
        </mxCell>
        <mxCell id="klKvHwUEyPqV0aK19Lbt-56" value="" style="edgeStyle=elbowEdgeStyle;elbow=vertical;endArrow=classic;html=1;curved=0;rounded=0;endSize=8;startSize=8;entryX=0.425;entryY=0.083;entryDx=0;entryDy=0;entryPerimeter=0;exitX=0.706;exitY=1.006;exitDx=0;exitDy=0;exitPerimeter=0;" edge="1" parent="1" source="klKvHwUEyPqV0aK19Lbt-52" target="klKvHwUEyPqV0aK19Lbt-36">
          <mxGeometry width="50" height="50" relative="1" as="geometry">
            <mxPoint x="-170" y="240" as="sourcePoint" />
            <mxPoint x="-120" y="190" as="targetPoint" />
          </mxGeometry>
        </mxCell>
        <mxCell id="klKvHwUEyPqV0aK19Lbt-57" value="" style="endArrow=none;dashed=1;html=1;dashPattern=1 3;strokeWidth=2;rounded=0;fillColor=#e51400;strokeColor=#B20000;" edge="1" parent="1">
          <mxGeometry width="50" height="50" relative="1" as="geometry">
            <mxPoint x="120" y="600" as="sourcePoint" />
            <mxPoint x="1360" y="320" as="targetPoint" />
            <Array as="points">
              <mxPoint x="-250" y="210" />
              <mxPoint x="-250" y="80" />
              <mxPoint x="50" y="10" />
              <mxPoint x="470" y="-10" />
              <mxPoint x="930" y="40" />
            </Array>
          </mxGeometry>
        </mxCell>
        <mxCell id="klKvHwUEyPqV0aK19Lbt-58" value="" style="endArrow=none;dashed=1;html=1;dashPattern=1 3;strokeWidth=2;rounded=0;fillColor=#e51400;strokeColor=#B20000;" edge="1" parent="1">
          <mxGeometry width="50" height="50" relative="1" as="geometry">
            <mxPoint x="1280" y="600" as="sourcePoint" />
            <mxPoint x="1360" y="320" as="targetPoint" />
          </mxGeometry>
        </mxCell>
        <mxCell id="klKvHwUEyPqV0aK19Lbt-59" value="" style="endArrow=none;dashed=1;html=1;dashPattern=1 3;strokeWidth=2;rounded=0;fillColor=#e51400;strokeColor=#B20000;" edge="1" parent="1">
          <mxGeometry width="50" height="50" relative="1" as="geometry">
            <mxPoint x="120" y="600" as="sourcePoint" />
            <mxPoint x="1280" y="600" as="targetPoint" />
          </mxGeometry>
        </mxCell>
        <mxCell id="klKvHwUEyPqV0aK19Lbt-60" value="&lt;font style=&quot;font-size: 18px; color: rgb(255, 51, 51);&quot;&gt;State Design Pattern Area&lt;/font&gt;" style="text;html=1;align=center;verticalAlign=middle;whiteSpace=wrap;rounded=0;" vertex="1" parent="1">
          <mxGeometry x="630" y="600" width="270" height="30" as="geometry" />
        </mxCell>
        <mxCell id="klKvHwUEyPqV0aK19Lbt-61" value="&lt;span style=&quot;font-size: 14px;&quot;&gt;CashWithdrawlProcessor next;&lt;/span&gt;" style="rounded=0;whiteSpace=wrap;html=1;" vertex="1" parent="1">
          <mxGeometry x="120" y="800" width="200" height="90" as="geometry" />
        </mxCell>
        <mxCell id="klKvHwUEyPqV0aK19Lbt-63" value="&lt;span style=&quot;font-size: 14px;&quot;&gt;CashWithdrawlProcessor&lt;/span&gt;" style="text;html=1;align=center;verticalAlign=middle;whiteSpace=wrap;rounded=0;" vertex="1" parent="1">
          <mxGeometry x="125" y="770" width="180" height="30" as="geometry" />
        </mxCell>
        <mxCell id="klKvHwUEyPqV0aK19Lbt-66" value="&lt;font style=&quot;font-size: 14px;&quot;&gt;2k&amp;nbsp;CashWithdrawlProcessor&lt;/font&gt;" style="rounded=0;whiteSpace=wrap;html=1;" vertex="1" parent="1">
          <mxGeometry x="-80" y="980" width="200" height="60" as="geometry" />
        </mxCell>
        <mxCell id="klKvHwUEyPqV0aK19Lbt-67" value="&lt;font style=&quot;font-size: 14px;&quot;&gt;500Rs CashWithdrawlProcessor&lt;/font&gt;" style="rounded=0;whiteSpace=wrap;html=1;" vertex="1" parent="1">
          <mxGeometry x="180" y="980" width="200" height="60" as="geometry" />
        </mxCell>
        <mxCell id="klKvHwUEyPqV0aK19Lbt-68" value="&lt;font style=&quot;font-size: 14px;&quot;&gt;2oo Rs CashWithdrawlProcessor&lt;/font&gt;" style="rounded=0;whiteSpace=wrap;html=1;" vertex="1" parent="1">
          <mxGeometry x="450" y="980" width="200" height="60" as="geometry" />
        </mxCell>
        <mxCell id="klKvHwUEyPqV0aK19Lbt-69" value="" style="shape=flexArrow;endArrow=classic;html=1;rounded=0;" edge="1" parent="1">
          <mxGeometry width="50" height="50" relative="1" as="geometry">
            <mxPoint x="80" y="970" as="sourcePoint" />
            <mxPoint x="150" y="900" as="targetPoint" />
          </mxGeometry>
        </mxCell>
        <mxCell id="klKvHwUEyPqV0aK19Lbt-70" value="" style="shape=flexArrow;endArrow=classic;html=1;rounded=0;" edge="1" parent="1">
          <mxGeometry width="50" height="50" relative="1" as="geometry">
            <mxPoint x="260" y="970" as="sourcePoint" />
            <mxPoint x="250" y="900" as="targetPoint" />
          </mxGeometry>
        </mxCell>
        <mxCell id="klKvHwUEyPqV0aK19Lbt-71" value="" style="shape=flexArrow;endArrow=classic;html=1;rounded=0;" edge="1" parent="1">
          <mxGeometry width="50" height="50" relative="1" as="geometry">
            <mxPoint x="510" y="970" as="sourcePoint" />
            <mxPoint x="310" y="910" as="targetPoint" />
          </mxGeometry>
        </mxCell>
        <mxCell id="klKvHwUEyPqV0aK19Lbt-73" value="" style="edgeStyle=elbowEdgeStyle;elbow=vertical;endArrow=classic;html=1;curved=0;rounded=0;endSize=8;startSize=8;entryX=0.5;entryY=0;entryDx=0;entryDy=0;exitX=0.6;exitY=1.033;exitDx=0;exitDy=0;exitPerimeter=0;" edge="1" parent="1" source="klKvHwUEyPqV0aK19Lbt-16" target="klKvHwUEyPqV0aK19Lbt-63">
          <mxGeometry width="50" height="50" relative="1" as="geometry">
            <mxPoint x="340" y="590" as="sourcePoint" />
            <mxPoint x="390" y="540" as="targetPoint" />
          </mxGeometry>
        </mxCell>
        <mxCell id="klKvHwUEyPqV0aK19Lbt-74" value="" style="endArrow=none;dashed=1;html=1;dashPattern=1 3;strokeWidth=2;rounded=0;fillColor=#1ba1e2;strokeColor=#006EAF;" edge="1" parent="1">
          <mxGeometry width="50" height="50" relative="1" as="geometry">
            <mxPoint x="-120" y="750" as="sourcePoint" />
            <mxPoint x="760" y="750" as="targetPoint" />
          </mxGeometry>
        </mxCell>
        <mxCell id="klKvHwUEyPqV0aK19Lbt-75" value="" style="endArrow=none;dashed=1;html=1;dashPattern=1 3;strokeWidth=2;rounded=0;fillColor=#1ba1e2;strokeColor=#006EAF;" edge="1" parent="1">
          <mxGeometry width="50" height="50" relative="1" as="geometry">
            <mxPoint x="-120" y="750" as="sourcePoint" />
            <mxPoint x="-120" y="1080" as="targetPoint" />
          </mxGeometry>
        </mxCell>
        <mxCell id="klKvHwUEyPqV0aK19Lbt-76" value="" style="endArrow=none;dashed=1;html=1;dashPattern=1 3;strokeWidth=2;rounded=0;fillColor=#1ba1e2;strokeColor=#006EAF;" edge="1" parent="1">
          <mxGeometry width="50" height="50" relative="1" as="geometry">
            <mxPoint x="760" y="1080" as="sourcePoint" />
            <mxPoint x="760" y="750" as="targetPoint" />
          </mxGeometry>
        </mxCell>
        <mxCell id="klKvHwUEyPqV0aK19Lbt-77" value="" style="endArrow=none;dashed=1;html=1;dashPattern=1 3;strokeWidth=2;rounded=0;fillColor=#1ba1e2;strokeColor=#006EAF;" edge="1" parent="1">
          <mxGeometry width="50" height="50" relative="1" as="geometry">
            <mxPoint x="-120" y="1080" as="sourcePoint" />
            <mxPoint x="760" y="1080" as="targetPoint" />
          </mxGeometry>
        </mxCell>
        <mxCell id="klKvHwUEyPqV0aK19Lbt-79" value="&lt;font style=&quot;font-size: 18px; color: rgb(0, 0, 255);&quot;&gt;Chain Of Responsibility Design Pattern&amp;nbsp;&lt;/font&gt;" style="text;html=1;align=center;verticalAlign=middle;whiteSpace=wrap;rounded=0;" vertex="1" parent="1">
          <mxGeometry x="170" y="1090" width="320" height="30" as="geometry" />
        </mxCell>
      </root>
    </mxGraphModel>
  </diagram>
</mxfile>
